<svg xmlns="http://www.w3.org/2000/svg" width="13" height="14" viewBox="0 0 13 14">
  <path id="icon-rss" d="M201.043,51.091A1.777,1.777,0,1,0,199.271,53a1.845,1.845,0,0,0,1.772-1.909Zm4.724,1.223A9.244,9.244,0,0,0,203.35,46.7a8.046,8.046,0,0,0-5.213-2.605h-.046a.544.544,0,0,0-.4.169.626.626,0,0,0-.194.467v1.342a.612.612,0,0,0,.535.626,6.147,6.147,0,0,1,5.315,5.727.6.6,0,0,0,.581.577h1.246a.545.545,0,0,0,.434-.209.674.674,0,0,0,.157-.477Zm4.732.02a14.565,14.565,0,0,0-3.827-9.217A12.586,12.586,0,0,0,198.118,39h-.028a.552.552,0,0,0-.406.179.632.632,0,0,0-.184.457v1.422a.613.613,0,0,0,.553.626c5.361.338,9.633,4.942,9.938,10.719a.608.608,0,0,0,.59.6H209.9a.548.548,0,0,0,.424-.2.638.638,0,0,0,.173-.467Z" transform="translate(-197.5 -39)" fill="#fff"/>
</svg>
