<svg xmlns="http://www.w3.org/2000/svg" width="16" height="15" viewBox="0 0 16 15">
  <path id="icon-google-plus" d="M162.585,50.775c0,1.538-1.7,2.065-2.764,2.065-1.625,0-4.053-.65-4.053-2.337,0-1.828,2.742-2.285,4.281-2.285a2.3,2.3,0,0,1,.356.019c.818.624,2.18,1.309,2.18,2.539Zm-1.247-7.958c0,.95-.461,1.721-1.438,1.721a3.215,3.215,0,0,1-2.906-3.205,2.106,2.106,0,0,1,2.192-2.23c1.442,0,2.153,2.4,2.153,3.715Zm-1.06-4.317a10.917,10.917,0,0,0-1.666.167,3.806,3.806,0,0,0-3.424,3.66c0,1.565,1.614,2.871,3.794,2.871a4.117,4.117,0,0,0,.7-.055,3.713,3.713,0,0,0-.157.886,3.26,3.26,0,0,0,.456,1.527c-2.043.055-4.841.561-5.636,2.164A2.6,2.6,0,0,0,154,50.907c0,2.019,2.235,2.593,4.666,2.593a6.856,6.856,0,0,0,3.929-1,3.179,3.179,0,0,0,1.294-2.478c0-2.616-2.956-3.139-2.956-4.461s2.253-1.464,2.253-3.549a3.218,3.218,0,0,0-1.474-2.849h.618l1.509-.66ZM170,40.835h-2.366V38.5h-1.27v2.335h-2.41v1.273h2.41V44.1h1.27V42.108H170V40.835Z" transform="translate(-154 -38.5)" fill="#fff"/>
</svg>
