<?xml version="1.0" standalone="no"?>
<!DOCTYPE svg PUBLIC "-//W3C//DTD SVG 20010904//EN"
 "http://www.w3.org/TR/2001/REC-SVG-20010904/DTD/svg10.dtd">
<svg version="1.0" xmlns="http://www.w3.org/2000/svg"
 width="512.000000pt" height="512.000000pt" viewBox="0 0 512.000000 512.000000"
 preserveAspectRatio="xMidYMid meet">
<metadata>
Created by potrace 1.11, written by Peter Selinger 2001-2013
</metadata>
<g transform="translate(0.000000,512.000000) scale(0.100000,-0.100000)"
fill="#000000" stroke="none">
<path d="M2385 4919 c-504 -53 -964 -345 -1242 -789 -156 -251 -242 -558 -243
-868 -1 -711 472 -1357 1155 -1575 61 -19 129 -38 153 -42 l42 -7 0 -299 0
-299 -147 0 c-178 -1 -280 -17 -366 -60 -74 -36 -164 -112 -207 -175 -41 -59
-270 -504 -277 -537 -4 -20 1 -33 20 -52 l26 -26 1261 0 1261 0 26 26 c19 19
24 32 20 52 -7 33 -236 478 -277 537 -43 63 -133 139 -207 175 -86 43 -188 59
-365 60 l-148 0 0 299 0 299 43 7 c23 4 92 23 152 42 683 218 1156 864 1155
1575 -1 449 -174 864 -492 1180 -359 357 -844 529 -1343 477z m333 -140 c691
-75 1245 -609 1347 -1300 22 -148 16 -371 -15 -514 -152 -710 -769 -1215
-1484 -1215 -403 0 -761 143 -1049 419 -301 289 -458 636 -474 1046 -34 917
765 1663 1675 1564z m12 -3454 l0 -285 -170 0 -170 0 0 285 0 285 170 0 170 0
0 -285z m481 -435 c82 -15 169 -63 225 -122 36 -38 78 -106 147 -240 53 -102
97 -189 97 -192 0 -3 -504 -6 -1120 -6 -616 0 -1120 3 -1120 6 0 3 44 90 97
192 69 134 111 202 147 240 53 57 142 107 216 121 64 13 1244 13 1311 1z"/>
<path d="M2510 4630 c-19 -19 -20 -33 -20 -459 l0 -439 -46 -11 c-53 -14 -124
-48 -172 -84 l-34 -25 -76 32 c-192 82 -367 101 -532 56 -161 -43 -346 -201
-430 -365 -32 -63 -32 -82 -2 -117 14 -17 49 -18 457 -18 l443 0 7 -36 c9 -50
47 -131 82 -178 l30 -39 -34 -77 c-144 -334 -94 -618 150 -847 70 -65 195
-143 230 -143 8 0 25 9 38 19 l24 19 5 442 5 442 55 17 c64 20 112 44 156 77
17 13 36 24 41 24 6 0 39 -13 74 -30 111 -51 210 -73 344 -74 136 -1 197 13
306 71 122 63 241 184 305 308 31 61 35 74 25 98 -6 15 -22 32 -36 37 -16 6
-198 10 -455 10 l-428 0 -7 38 c-9 49 -48 131 -84 176 l-29 37 33 73 c81 175
103 384 57 536 -47 152 -154 290 -303 390 -100 66 -143 76 -179 40z m229 -265
c107 -118 154 -270 131 -426 -14 -103 -69 -255 -90 -252 -8 2 -45 13 -82 25
l-68 23 0 363 0 363 29 -20 c16 -12 52 -46 80 -76z m-43 -800 c137 -61 218
-223 184 -366 -36 -152 -168 -259 -320 -259 -238 0 -396 248 -296 465 75 164
267 235 432 160z m-820 15 c78 -10 193 -43 247 -71 l26 -14 -19 -43 c-11 -23
-22 -58 -26 -77 l-6 -35 -365 0 -364 0 20 28 c25 35 96 102 139 131 49 34 151
73 212 81 30 4 55 8 55 9 0 0 37 -4 81 -9z m1874 -389 c0 -14 -104 -116 -152
-149 -101 -69 -213 -98 -336 -89 -74 6 -202 41 -262 72 l-29 15 19 42 c10 24
22 60 25 81 l7 37 364 0 c206 0 364 -4 364 -9z m-1310 -376 l45 -11 3 -362 c1
-211 -2 -362 -7 -362 -14 0 -116 104 -148 152 -17 24 -43 75 -58 113 -24 59
-29 84 -29 165 -1 106 13 171 56 277 l30 73 31 -17 c18 -9 52 -21 77 -28z"/>
<path d="M2224 4231 c-146 -50 -275 -131 -386 -242 -48 -48 -58 -63 -58 -92 0
-41 25 -67 66 -67 22 0 41 12 74 46 95 96 244 189 370 229 59 18 100 54 100
86 0 25 -43 69 -67 69 -10 0 -55 -13 -99 -29z"/>
<path d="M3140 4030 c-34 -34 -26 -70 31 -125 92 -91 178 -226 224 -355 14
-41 33 -83 42 -92 35 -39 113 -7 113 45 0 36 -38 143 -80 227 -46 92 -115 186
-191 263 -64 63 -102 74 -139 37z"/>
<path d="M2213 3964 c-112 -55 -143 -82 -143 -124 0 -36 31 -70 63 -70 12 0
56 21 97 45 41 25 80 45 86 45 24 0 74 51 74 76 0 29 -41 74 -67 74 -10 0 -60
-21 -110 -46z"/>
<path d="M3081 3734 c-12 -15 -21 -33 -21 -40 0 -8 23 -53 50 -101 28 -48 50
-92 50 -98 0 -21 46 -55 73 -55 32 0 67 35 67 67 0 41 -90 209 -128 241 -27
21 -69 14 -91 -14z"/>
<path d="M1620 3093 c-59 -21 -63 -63 -16 -185 48 -128 119 -239 216 -340 91
-95 109 -102 154 -67 45 36 36 69 -42 152 -106 113 -166 211 -211 349 -12 36
-27 71 -34 76 -17 14 -50 21 -67 15z"/>
<path d="M1860 3087 c-42 -21 -47 -57 -17 -126 38 -89 93 -170 122 -181 34
-13 72 3 87 36 11 23 9 33 -16 78 -16 28 -44 81 -62 119 -24 46 -42 71 -60 77
-30 12 -24 12 -54 -3z"/>
<path d="M2928 2739 c-29 -16 -81 -42 -115 -58 -61 -29 -83 -52 -83 -88 0 -29
37 -63 68 -63 33 0 150 55 210 99 35 26 42 37 42 65 0 33 -18 57 -52 69 -10 3
-39 -7 -70 -24z"/>
<path d="M3178 2642 c-116 -108 -185 -150 -338 -208 -97 -36 -121 -62 -104
-111 13 -38 52 -50 112 -34 143 38 291 124 409 236 71 68 83 85 83 113 0 38
-30 72 -64 72 -17 0 -49 -23 -98 -68z"/>
<path d="M2210 748 c-17 -19 -20 -35 -20 -124 0 -119 13 -147 70 -147 57 0 70
28 70 147 0 89 -3 105 -20 124 -12 13 -33 22 -50 22 -17 0 -38 -9 -50 -22z"/>
<path d="M2510 748 c-17 -19 -20 -35 -20 -124 0 -119 13 -147 70 -147 57 0 70
28 70 147 0 89 -3 105 -20 124 -12 13 -33 22 -50 22 -17 0 -38 -9 -50 -22z"/>
<path d="M2810 748 c-17 -19 -20 -35 -20 -124 0 -119 13 -147 70 -147 57 0 70
28 70 147 0 89 -3 105 -20 124 -12 13 -33 22 -50 22 -17 0 -38 -9 -50 -22z"/>
</g>
</svg>
