<svg xmlns="http://www.w3.org/2000/svg" width="15" height="14" viewBox="0 0 15 14">
  <path id="icon-linkedin" d="M31.725,43.427H28.683V53h3.042V43.427Zm.214-2.956A1.591,1.591,0,0,0,30.223,39a1.653,1.653,0,1,0-.037,3.3H30.2a1.624,1.624,0,0,0,1.734-1.652v-.18ZM43.5,47.443c0-2.823-1.5-4.058-3.548-4.058a2.97,2.97,0,0,0-3.044,1.433l.02.019V43.585H33.578s.04.809,0,9.345h3.349V47.588a2.284,2.284,0,0,1,.112-.783,1.829,1.829,0,0,1,1.721-1.159c1.212,0,1.7.879,1.7,2.164v5.12H43.5V47.443Z" transform="translate(-28.5 -39)" fill="#fff"/>
</svg>
