<svg xmlns="http://www.w3.org/2000/svg" width="15" height="15" viewBox="0 0 15 15">
  <path id="icon-pinterest" d="M127.5,46.377c0-4.242-3.514-7.877-7.388-7.877a7.779,7.779,0,0,0-7.612,7.877A6.606,6.606,0,0,0,117.057,53a4.168,4.168,0,0,1,.127-1.374s.147-.481.974-4.129a3.4,3.4,0,0,1-.249-1.258c0-1.175.658-2.052,1.476-2.052a1.055,1.055,0,0,1,1.035,1.2,17.5,17.5,0,0,1-.676,2.8,1.2,1.2,0,0,0,1.085,1.526c1.127,0,1.884-1.928,1.884-4.206,0-1.668-.881-2.736-2.521-2.736a3.432,3.432,0,0,0-3.743,3.489,2.375,2.375,0,0,0,.5,1.557.4.4,0,0,1,.108.443c-.039.144-.118.495-.157.629a.257.257,0,0,1-.372.206,3.03,3.03,0,0,1-1.734-3.03,5.489,5.489,0,0,1,5.608-5.155,5.412,5.412,0,0,1,4.805,4.743c0,3.113-2.228,5.432-4.246,5.432a2.085,2.085,0,0,1-1.705-.989c-.449,1.617-.538,1.881-.538,1.881a4.576,4.576,0,0,1-.778,1.273,9.489,9.489,0,0,0,2.173.248,7.109,7.109,0,0,0,7.388-7.123Z" transform="translate(-112.5 -38.5)" fill="#fff"/>
</svg>
